<svg xmlns="http://www.w3.org/2000/svg" viewBox="0 0 420 420" fill="none">
  <defs>
    <linearGradient id="ct-tin" x1="130" y1="210" x2="290" y2="330" gradientUnits="userSpaceOnUse">
      <stop offset="0" stop-color="#EDE7DC"/><stop offset="1" stop-color="#C9BCA6"/>
    </linearGradient>
    <linearGradient id="ct-flame" x1="210" y1="150" x2="210" y2="200" gradientUnits="userSpaceOnUse">
      <stop offset="0" stop-color="#FFE39B"/><stop offset="1" stop-color="#FF8A32"/>
    </linearGradient>
  </defs>
  <ellipse cx="210" cy="352" rx="104" ry="16" fill="#191a12" opacity=".10"/>
  <!-- flame -->
  <path d="M210 152c13 16 20 27 20 37a20 20 0 0 1-40 0c0-10 7-21 20-37z" fill="url(#ct-flame)"/>
  <rect x="207" y="192" width="6" height="16" rx="3" fill="#3A3327"/>
  <!-- tin body -->
  <rect x="122" y="206" width="176" height="120" rx="16" fill="url(#ct-tin)"/>
  <!-- wax top -->
  <ellipse cx="210" cy="212" rx="88" ry="16" fill="#F4E7D0"/>
  <ellipse cx="210" cy="212" rx="88" ry="16" fill="#191a12" opacity=".04"/>
  <!-- rim -->
  <rect x="122" y="238" width="176" height="8" rx="4" fill="#fff" opacity=".35"/>
  <!-- label -->
  <rect x="150" y="262" width="120" height="44" rx="9" fill="#F6EFE2"/>
  <rect x="162" y="276" width="12" height="12" rx="3.5" fill="#0e9d63"/>
  <rect x="182" y="277" width="70" height="6" rx="3" fill="#B79B7E"/>
  <rect x="182" y="291" width="44" height="5" rx="2.5" fill="#CDBCA6"/>
</svg>
