<svg xmlns="http://www.w3.org/2000/svg" viewBox="0 0 420 420" fill="none">
  <defs>
    <linearGradient id="ca-glass" x1="128" y1="170" x2="292" y2="346" gradientUnits="userSpaceOnUse">
      <stop offset="0" stop-color="#EBB06A"/><stop offset="1" stop-color="#C87C33"/>
    </linearGradient>
    <linearGradient id="ca-flame" x1="210" y1="108" x2="210" y2="172" gradientUnits="userSpaceOnUse">
      <stop offset="0" stop-color="#FFE39B"/><stop offset="1" stop-color="#FF8A32"/>
    </linearGradient>
  </defs>
  <ellipse cx="210" cy="356" rx="96" ry="16" fill="#191a12" opacity=".10"/>
  <!-- flame -->
  <path d="M210 112c16 20 24 33 24 45a24 24 0 0 1-48 0c0-12 8-25 24-45z" fill="url(#ca-flame)"/>
  <path d="M210 132c8 12 12 20 12 27a12 12 0 0 1-24 0c0-7 4-15 12-27z" fill="#FFF3D0" opacity=".9"/>
  <rect x="207" y="160" width="6" height="18" rx="3" fill="#3A3327"/>
  <!-- jar -->
  <rect x="128" y="172" width="164" height="174" rx="24" fill="url(#ca-glass)"/>
  <rect x="128" y="172" width="164" height="174" rx="24" fill="#fff" opacity=".05"/>
  <path d="M150 190c-6 8-8 60-4 130" stroke="#fff" stroke-opacity=".28" stroke-width="7" stroke-linecap="round"/>
  <!-- wax surface -->
  <ellipse cx="210" cy="178" rx="82" ry="15" fill="#F4E7D0"/>
  <ellipse cx="210" cy="178" rx="82" ry="15" fill="#191a12" opacity=".04"/>
  <!-- label -->
  <rect x="152" y="246" width="116" height="60" rx="10" fill="#F6EFE2"/>
  <rect x="164" y="262" width="14" height="14" rx="4" fill="#0e9d63"/>
  <rect x="186" y="263" width="66" height="6" rx="3" fill="#B79B7E"/>
  <rect x="186" y="278" width="42" height="5" rx="2.5" fill="#CDBCA6"/>
</svg>
