<svg xmlns="http://www.w3.org/2000/svg" viewBox="0 0 420 420" fill="none">
  <defs>
    <linearGradient id="dr-glass" x1="156" y1="230" x2="264" y2="344" gradientUnits="userSpaceOnUse">
      <stop offset="0" stop-color="#EAF0EC"/><stop offset="1" stop-color="#C6D5CE"/>
    </linearGradient>
  </defs>
  <ellipse cx="210" cy="356" rx="88" ry="15" fill="#191a12" opacity=".10"/>
  <!-- reeds -->
  <g stroke-linecap="round">
    <line x1="196" y1="118" x2="188" y2="236" stroke="#C9A87A" stroke-width="7"/>
    <line x1="210" y1="104" x2="210" y2="236" stroke="#B7936A" stroke-width="7"/>
    <line x1="224" y1="120" x2="232" y2="236" stroke="#C9A87A" stroke-width="7"/>
    <line x1="182" y1="140" x2="176" y2="236" stroke="#D8BE98" stroke-width="6"/>
    <line x1="238" y1="138" x2="244" y2="236" stroke="#D8BE98" stroke-width="6"/>
  </g>
  <!-- bottle -->
  <rect x="156" y="230" width="108" height="114" rx="20" fill="url(#dr-glass)"/>
  <!-- liquid -->
  <rect x="156" y="276" width="108" height="68" rx="20" fill="#D9B77A" opacity=".55"/>
  <!-- neck -->
  <rect x="192" y="214" width="36" height="22" rx="6" fill="#DCE6E0"/>
  <ellipse cx="188" cy="252" rx="14" ry="9" fill="#fff" opacity=".4"/>
  <!-- label -->
  <rect x="176" y="296" width="68" height="34" rx="8" fill="#F6EFE2"/>
  <rect x="188" y="307" width="12" height="12" rx="3.5" fill="#0e9d63"/>
  <rect x="208" y="309" width="30" height="6" rx="3" fill="#B79B7E"/>
</svg>
