<svg xmlns="http://www.w3.org/2000/svg" viewBox="0 0 420 420" fill="none">
  <defs>
    <linearGradient id="mu-b" x1="130" y1="150" x2="266" y2="330" gradientUnits="userSpaceOnUse">
      <stop offset="0" stop-color="#D98E6A"/><stop offset="1" stop-color="#AC603C"/>
    </linearGradient>
  </defs>
  <ellipse cx="204" cy="352" rx="86" ry="14" fill="#191a12" opacity=".10"/>
  <!-- handle -->
  <path d="M266 196h22a34 34 0 0 1 0 68h-22" stroke="#AC603C" stroke-width="20" stroke-linecap="round"/>
  <!-- body -->
  <path d="M130 158h136v152a34 34 0 0 1-34 34h-68a34 34 0 0 1-34-34z" fill="url(#mu-b)"/>
  <path d="M150 180c-4 8-4 108-1 140" stroke="#fff" stroke-opacity=".24" stroke-width="7" stroke-linecap="round"/>
  <!-- rim + coffee -->
  <ellipse cx="198" cy="158" rx="68" ry="16" fill="#F4E7D0"/>
  <ellipse cx="198" cy="158" rx="54" ry="11" fill="#4A3222"/>
  <!-- print -->
  <rect x="164" y="238" width="14" height="14" rx="4" fill="#0e9d63"/>
  <rect x="186" y="239" width="52" height="6" rx="3" fill="#F6EFE2" opacity=".85"/>
  <rect x="186" y="253" width="32" height="5" rx="2.5" fill="#F6EFE2" opacity=".6"/>
</svg>
