<svg xmlns="http://www.w3.org/2000/svg" viewBox="0 0 420 420" fill="none">
  <defs>
    <linearGradient id="rm-glass" x1="160" y1="176" x2="260" y2="344" gradientUnits="userSpaceOnUse">
      <stop offset="0" stop-color="#EAF0EC"/><stop offset="1" stop-color="#BFD0C8"/>
    </linearGradient>
  </defs>
  <ellipse cx="210" cy="356" rx="80" ry="15" fill="#191a12" opacity=".10"/>
  <!-- mist -->
  <g fill="#0e9d63" opacity=".5">
    <circle cx="150" cy="118" r="4"/><circle cx="134" cy="134" r="3"/><circle cx="158" cy="146" r="3"/><circle cx="140" cy="106" r="3"/>
  </g>
  <!-- spray head -->
  <rect x="192" y="118" width="30" height="26" rx="5" fill="#33342F"/>
  <rect x="168" y="128" width="30" height="10" rx="5" fill="#44453F"/>
  <rect x="199" y="142" width="18" height="18" rx="3" fill="#5A5B53"/>
  <!-- bottle -->
  <rect x="162" y="158" width="96" height="186" rx="22" fill="url(#rm-glass)"/>
  <path d="M180 180c-4 12-5 100-2 150" stroke="#fff" stroke-opacity=".4" stroke-width="7" stroke-linecap="round"/>
  <!-- label -->
  <rect x="176" y="238" width="68" height="70" rx="10" fill="#F6EFE2"/>
  <rect x="188" y="254" width="13" height="13" rx="4" fill="#0e9d63"/>
  <rect x="188" y="278" width="44" height="6" rx="3" fill="#B79B7E"/>
  <rect x="188" y="292" width="30" height="5" rx="2.5" fill="#CDBCA6"/>
</svg>
