<svg xmlns="http://www.w3.org/2000/svg" viewBox="0 0 420 420" fill="none">
  <defs>
    <linearGradient id="sb-bar" x1="132" y1="214" x2="288" y2="316" gradientUnits="userSpaceOnUse">
      <stop offset="0" stop-color="#CDDCC5"/><stop offset="1" stop-color="#93B089"/>
    </linearGradient>
  </defs>
  <ellipse cx="210" cy="340" rx="98" ry="16" fill="#191a12" opacity=".10"/>
  <!-- bar -->
  <rect x="128" y="228" width="164" height="98" rx="26" fill="url(#sb-bar)"/>
  <rect x="128" y="228" width="164" height="30" rx="26" fill="#fff" opacity=".18"/>
  <!-- sprig -->
  <path d="M210 228c-2-30 6-56 34-74" stroke="#4E7A4E" stroke-width="5" stroke-linecap="round"/>
  <g fill="#5C8A56">
    <path d="M226 176c14-6 26-4 34 2-10 8-22 10-34-2z"/>
    <path d="M234 158c12-8 24-8 33-3-8 10-20 13-33 3z"/>
    <path d="M244 140c11-9 23-10 32-6-6 11-18 15-32 6z"/>
  </g>
  <!-- embossed mark -->
  <rect x="164" y="266" width="15" height="15" rx="4.5" fill="#0e9d63" opacity=".8"/>
  <rect x="188" y="269" width="60" height="6" rx="3" fill="#fff" opacity=".55"/>
</svg>
