<svg xmlns="http://www.w3.org/2000/svg" viewBox="0 0 420 420" fill="none">
  <defs>
    <linearGradient id="wm-cube" x1="0" y1="0" x2="0" y2="1">
      <stop offset="0" stop-color="#F3DDB3"/><stop offset="1" stop-color="#D9AE62"/>
    </linearGradient>
  </defs>
  <ellipse cx="210" cy="344" rx="102" ry="16" fill="#191a12" opacity=".10"/>
  <!-- clamshell tray -->
  <rect x="124" y="196" width="172" height="134" rx="18" fill="#EAF0EC"/>
  <rect x="124" y="196" width="172" height="134" rx="18" fill="#fff" opacity=".25"/>
  <!-- cubes 3x2 -->
  <g>
    <rect x="140" y="212" width="44" height="44" rx="10" fill="url(#wm-cube)"/>
    <rect x="188" y="212" width="44" height="44" rx="10" fill="url(#wm-cube)"/>
    <rect x="236" y="212" width="44" height="44" rx="10" fill="url(#wm-cube)"/>
    <rect x="140" y="262" width="44" height="44" rx="10" fill="url(#wm-cube)"/>
    <rect x="188" y="262" width="44" height="44" rx="10" fill="url(#wm-cube)"/>
    <rect x="236" y="262" width="44" height="44" rx="10" fill="url(#wm-cube)"/>
  </g>
  <g fill="#fff" opacity=".3">
    <rect x="146" y="218" width="14" height="8" rx="4"/><rect x="194" y="218" width="14" height="8" rx="4"/><rect x="242" y="218" width="14" height="8" rx="4"/>
  </g>
  <rect x="196" y="176" width="15" height="15" rx="4.5" fill="#0e9d63"/>
  <rect x="218" y="179" width="40" height="7" rx="3.5" fill="#B79B7E"/>
</svg>
